<?xml version="1.0" standalone="no"?>
<!DOCTYPE svg PUBLIC "-//W3C//DTD SVG 20010904//EN"
 "http://www.w3.org/TR/2001/REC-SVG-20010904/DTD/svg10.dtd">
<svg version="1.0" xmlns="http://www.w3.org/2000/svg"
 width="300.000000pt" height="137.000000pt" viewBox="0 0 300.000000 137.000000"
 preserveAspectRatio="xMidYMid meet">
<metadata>
Created by potrace 1.10, written by Peter Selinger 2001-2011
</metadata>
<g transform="translate(0.000000,137.000000) scale(0.100000,-0.100000)"
fill="#000000" stroke="none">
<path d="M290 884 c0 -19 -4 -33 -9 -30 -7 5 -22 -28 -25 -56 -1 -4 -7 -13
-13 -19 -9 -9 -12 -41 -11 -98 l2 -86 3 79 c3 60 9 86 24 108 11 15 17 28 14
28 -4 0 1 7 9 16 14 14 24 94 11 94 -3 0 -5 -16 -5 -36z"/>
<path d="M144 867 c3 -32 11 -56 25 -71 20 -21 21 -33 21 -198 0 -153 2 -177
16 -182 30 -12 44 13 42 73 l-1 56 -6 -60 c-4 -44 -10 -60 -21 -60 -13 0 -16
28 -20 175 -4 152 -8 179 -25 204 -10 16 -22 47 -27 70 l-7 41 3 -48z"/>
<path d="M393 874 c-4 -10 1 -22 10 -29 15 -10 17 -34 17 -164 0 -126 -3 -153
-15 -157 -8 -4 -15 -15 -15 -25 0 -17 7 -19 78 -17 l77 2 -72 3 c-74 4 -85 10
-58 33 12 10 15 42 15 167 0 127 -3 155 -15 159 -8 4 -15 12 -15 20 0 10 26
14 113 17 l112 3 -113 2 c-97 2 -114 0 -119 -14z"/>
<path d="M1593 874 c-4 -10 0 -22 10 -29 15 -10 17 -34 17 -165 0 -131 -2
-155 -17 -165 -27 -20 -5 -35 53 -35 57 0 70 14 38 41 -12 10 -15 33 -13 121
1 59 -1 111 -4 115 -4 3 -7 -49 -7 -116 0 -99 3 -123 15 -127 31 -12 13 -24
-35 -24 -54 0 -60 5 -32 26 15 11 17 31 17 162 0 129 -2 153 -17 169 -10 11
-18 23 -18 26 0 12 99 7 106 -5 4 -6 30 -68 58 -138 47 -115 67 -150 72 -121
2 8 1 8 -3 0 -3 -6 -31 54 -62 133 l-57 143 -57 3 c-46 2 -58 0 -64 -14z"/>
<path d="M1936 868 c-18 -28 -58 -129 -53 -134 2 -2 17 29 33 69 l29 72 53 3
c28 2 52 0 52 -3 0 -4 -9 -18 -20 -32 -18 -23 -20 -41 -20 -164 0 -126 2 -141
20 -159 11 -11 20 -22 20 -25 0 -3 -31 -5 -70 -5 -65 0 -90 10 -55 24 8 3 15
13 14 23 0 14 -2 15 -6 3 -4 -8 -13 -20 -21 -26 -28 -21 -2 -34 68 -34 71 0
96 13 67 35 -15 10 -17 34 -17 165 0 131 2 155 17 165 31 23 9 45 -46 45 -41
0 -53 -4 -65 -22z"/>
<path d="M656 869 c38 -11 54 -29 64 -72 8 -32 8 -32 9 -4 1 36 -47 87 -81 86
-19 -1 -18 -2 8 -10z"/>
<path d="M508 844 c-5 -4 -8 -45 -8 -91 l0 -83 55 0 c59 0 96 22 94 58 0 13
-2 14 -6 2 -14 -37 -36 -50 -85 -50 l-48 0 0 80 0 80 38 0 c49 0 85 -19 93
-50 6 -22 7 -22 8 -4 1 11 -8 29 -19 39 -21 19 -109 33 -122 19z"/>
<path d="M2431 805 c-11 -19 -17 -35 -13 -35 4 0 15 14 25 32 19 33 33 29 39
-12 2 -20 9 -26 36 -28 31 -3 42 -15 22 -25 -6 -3 -5 -4 2 -3 27 6 12 31 -19
34 -27 3 -33 8 -33 26 0 21 -17 46 -31 46 -4 0 -16 -16 -28 -35z"/>
<path d="M833 774 c11 -4 17 -16 17 -37 l0 -31 28 28 c16 15 42 28 58 29 25 2
29 -2 29 -23 0 -20 -6 -25 -35 -31 -55 -12 -80 -49 -80 -118 0 -40 5 -63 15
-71 28 -23 16 -30 -50 -30 -61 0 -85 13 -50 26 12 5 15 26 15 100 0 75 -3 96
-15 100 -26 10 -16 32 18 40 17 4 27 9 21 11 -6 2 -23 -1 -37 -6 -29 -11 -36
-38 -12 -47 12 -5 15 -25 15 -95 0 -70 -3 -91 -15 -95 -8 -4 -15 -15 -15 -25
0 -17 8 -19 75 -19 67 0 75 2 75 19 0 10 -7 21 -15 25 -11 4 -15 21 -15 66 0
51 4 65 25 85 13 14 35 25 49 25 36 0 59 26 45 51 -6 11 -16 22 -24 25 -17 7
-85 -24 -86 -40 -1 -6 -4 0 -8 14 -4 14 -15 26 -26 27 -16 1 -17 1 -2 -3z"/>
<path d="M1053 765 c-42 -18 -67 -67 -67 -135 -1 -95 44 -149 132 -158 75 -7
153 41 120 74 -13 13 -17 12 -40 -6 -37 -29 -82 -26 -107 6 -38 48 -30 54 68
54 90 0 102 5 100 43 0 7 -4 2 -9 -10 -9 -22 -15 -23 -100 -23 -99 0 -104 -4
-75 -59 23 -46 83 -56 128 -21 16 13 28 16 32 10 9 -14 -2 -28 -37 -46 -37
-19 -117 -14 -153 10 -35 23 -59 96 -50 151 10 68 46 105 115 115 50 7 51 8
15 8 -22 1 -54 -5 -72 -13z"/>
<path d="M1353 773 c9 -2 17 -14 17 -25 0 -20 0 -20 34 1 62 39 126 22 150
-41 34 -83 10 -189 -47 -216 -33 -16 -89 -9 -107 13 -23 27 -30 15 -30 -48 0
-51 4 -68 20 -82 11 -10 17 -22 14 -26 -6 -10 -117 -12 -127 -3 -3 4 3 18 13
32 18 22 20 39 18 171 l-2 146 -5 -152 c-5 -136 -8 -154 -26 -167 -16 -12 -17
-16 -6 -30 18 -21 123 -22 141 -2 9 12 7 18 -9 33 -17 14 -21 29 -21 76 l0 58
26 -20 c54 -42 131 -18 158 49 28 70 16 179 -23 214 -28 26 -91 31 -128 12
-27 -13 -32 -14 -37 -1 -3 8 -13 14 -23 14 -17 -1 -17 -2 0 -6z"/>
<path d="M2674 770 c-24 -9 -64 -57 -64 -74 1 -6 7 1 16 16 28 52 115 75 174
45 31 -15 60 -71 60 -114 l0 -32 -92 -4 -93 -3 95 0 95 1 3 34 c5 50 -24 107
-63 125 -36 17 -97 20 -131 6z"/>
<path d="M1196 751 c22 -13 35 -32 42 -58 9 -34 10 -35 11 -10 1 30 -45 87
-71 87 -7 0 1 -9 18 -19z"/>
<path d="M1283 760 c-28 -12 -29 -31 -3 -48 25 -15 27 -4 3 14 -16 11 -15 14
17 28 37 16 21 21 -17 6z"/>
<path d="M2116 749 c-21 -16 -26 -28 -24 -53 3 -27 7 -31 32 -31 16 0 30 6 32
13 1 7 0 8 -3 2 -2 -5 -16 -10 -29 -10 -20 0 -24 5 -24 30 0 23 7 35 33 50 17
11 27 20 21 20 -6 0 -23 -10 -38 -21z"/>
<path d="M720 729 c0 -30 -17 -57 -48 -73 -18 -10 -21 -15 -10 -16 23 0 68 56
68 86 0 13 -2 24 -5 24 -3 0 -5 -9 -5 -21z"/>
<path d="M1094 732 c-16 -11 -34 -48 -34 -71 0 -19 6 -21 65 -21 59 0 65 2 65
21 0 23 -18 60 -34 71 -6 4 -20 8 -31 8 -11 0 -25 -4 -31 -8z m70 -24 c31 -44
22 -58 -39 -58 -46 0 -55 3 -55 18 0 29 29 62 55 62 13 0 31 -10 39 -22z"/>
<path d="M2696 721 c-10 -11 -16 -28 -13 -38 4 -15 5 -15 6 3 1 26 17 40 51
47 l25 4 -26 2 c-14 0 -34 -8 -43 -18z"/>
<path d="M1470 725 c0 -6 4 -15 9 -20 6 -6 12 -41 14 -80 l3 -70 2 71 c1 49
-2 76 -13 90 -8 10 -15 14 -15 9z"/>
<path d="M2248 705 c6 -32 -13 -55 -47 -56 -23 -2 -23 -2 -4 -6 35 -7 63 14
63 47 0 16 -4 31 -9 34 -4 3 -6 -6 -3 -19z"/>
<path d="M2402 643 c-1 -54 3 -103 10 -118 14 -31 55 -55 93 -55 30 0 85 26
85 41 0 5 -13 0 -29 -12 -23 -17 -38 -20 -67 -16 -66 11 -78 33 -85 150 l-5
102 -2 -92z"/>
<path d="M2484 631 c1 -88 4 -106 19 -115 22 -14 51 3 55 33 4 28 32 27 33 -1
l1 -23 6 23 c7 22 8 21 21 -9 28 -63 150 -88 216 -45 26 17 34 51 13 59 -7 2
-25 -5 -39 -15 -17 -13 -38 -18 -60 -16 -27 2 -37 10 -51 38 -10 19 -18 28
-18 19 0 -9 9 -28 21 -43 25 -32 75 -35 112 -6 31 25 48 8 22 -20 -38 -42
-135 -37 -187 9 -27 24 -32 36 -38 97 l-7 69 -2 -56 c-1 -50 -3 -56 -23 -55
-15 1 -24 -6 -28 -24 -4 -18 -13 -25 -30 -25 -25 0 -25 2 -31 105 l-5 105 0
-104z"/>
<path d="M2779 713 c6 -12 11 -31 11 -43 0 -20 -4 -22 -59 -18 -33 1 -57 0
-54 -4 2 -5 31 -8 64 -8 58 0 59 0 59 28 0 16 -7 37 -16 48 -15 18 -15 18 -5
-3z"/>
<path d="M1693 698 c3 -7 20 -50 38 -96 18 -45 34 -80 36 -78 5 5 -67 186 -74
186 -3 0 -3 -6 0 -12z"/>
<path d="M2332 619 c-2 -67 1 -89 13 -99 25 -21 17 -30 -29 -30 -31 0 -46 5
-50 16 -6 15 -8 15 -27 -2 -30 -27 -125 -27 -145 0 -32 45 -7 109 49 125 26 7
28 9 9 10 -14 1 -36 -12 -53 -28 -34 -35 -38 -77 -10 -112 16 -20 29 -24 74
-24 39 0 61 5 75 18 17 16 20 16 25 2 5 -11 21 -15 57 -15 42 0 50 3 50 19 0
10 -7 21 -15 24 -10 5 -15 28 -18 94 l-3 88 -2 -86z"/>
<path d="M1860 574 c-36 -91 -54 -109 -78 -78 -8 10 -12 13 -10 5 8 -26 36
-37 52 -21 16 16 79 170 73 176 -2 3 -19 -34 -37 -82z"/>
<path d="M507 633 c-4 -3 -7 -27 -7 -53 0 -44 13 -70 35 -70 5 0 2 5 -7 11
-13 7 -18 23 -18 59 l0 49 68 4 67 3 -66 2 c-36 1 -69 -1 -72 -5z"/>
<path d="M2204 611 c-41 -10 -51 -17 -57 -40 -7 -28 20 -61 49 -61 35 0 64 34
64 75 0 37 -3 38 -56 26z m46 -30 c0 -38 -25 -63 -59 -59 -21 2 -27 9 -29 35
-3 28 0 33 25 39 15 3 33 7 38 9 22 7 25 4 25 -24z"/>
<path d="M1380 570 c0 -9 7 -26 16 -38 17 -24 62 -30 82 -10 19 19 14 33 -6
15 -30 -28 -61 -21 -77 16 -8 17 -14 25 -15 17z"/>
</g>
</svg>
